HIERARCHY
ROOT root
{
	OFFSET 0.000000 0.000000 0.000000
	CHANNELS 6 Xposition Yposition Zposition Zrotation Yrotation Xrotation
	JOINT lhip
	{
		OFFSET 0.058581 -0.082280 -0.017664
		CHANNELS 3 Zrotation Yrotation Xrotation
		JOINT lknee
		{
			OFFSET 0.043451 -0.386469 0.008037
			CHANNELS 3 Zrotation Yrotation Xrotation
			JOINT lankle
			{
				OFFSET -0.014790 -0.426874 -0.037428
				CHANNELS 3 Zrotation Yrotation Xrotation
				JOINT ltoe
				{
					OFFSET 0.041054 -0.060286 0.122042
					CHANNELS 3 Zrotation Yrotation Xrotation
					End Site
					{
						OFFSET 0.000000 0.000000 0.000000
					}
				}
			}
		}
	}
	JOINT rhip
	{
		OFFSET -0.060310 -0.090513 -0.013543
		CHANNELS 3 Zrotation Yrotation Xrotation
		JOINT rknee
		{
			OFFSET -0.043257 -0.383688 -0.004843
			CHANNELS 3 Zrotation Yrotation Xrotation
			JOINT rankle
			{
				OFFSET 0.019056 -0.420046 -0.034562
				CHANNELS 3 Zrotation Yrotation Xrotation
				JOINT rtoe
				{
					OFFSET -0.034840 -0.062106 0.130323
					CHANNELS 3 Zrotation Yrotation Xrotation
					End Site
					{
						OFFSET 0.000000 0.000000 0.000000
					}
				}
			}
		}
	}
	JOINT lowerback
	{
		OFFSET 0.004439 0.124404 -0.038385
		CHANNELS 3 Zrotation Yrotation Xrotation
		JOINT upperback
		{
			OFFSET 0.004488 0.137956 0.026820
			CHANNELS 3 Zrotation Yrotation Xrotation
			JOINT chest
			{
				OFFSET -0.002265 0.056032 0.002855
				CHANNELS 3 Zrotation Yrotation Xrotation
				JOINT lowerneck
				{
					OFFSET -0.013390 0.211636 -0.033468
					CHANNELS 3 Zrotation Yrotation Xrotation
					JOINT upperneck
					{
						OFFSET 0.010113 0.088937 0.050410
						CHANNELS 3 Zrotation Yrotation Xrotation
						End Site
						{
							OFFSET 0.000000 0.000000 0.000000
						}
					}
				}
				JOINT lclavicle
				{
					OFFSET 0.071702 0.114000 -0.018898
					CHANNELS 3 Zrotation Yrotation Xrotation
					JOINT lshoulder
					{
						OFFSET 0.122921 0.045205 -0.019046
						CHANNELS 3 Zrotation Yrotation Xrotation
						JOINT lelbow
						{
							OFFSET 0.255332 -0.015649 -0.022946
							CHANNELS 3 Zrotation Yrotation Xrotation
							JOINT lwrist
							{
								OFFSET 0.265709 0.012698 -0.007375
								CHANNELS 3 Zrotation Yrotation Xrotation
								End Site
								{
									OFFSET 0.000000 0.000000 0.000000
								}
							}
						}
					}
				}
				JOINT rclavicle
				{
					OFFSET -0.082954 0.112472 -0.023707
					CHANNELS 3 Zrotation Yrotation Xrotation
					JOINT rshoulder
					{
						OFFSET -0.113228 0.046853 -0.008472
						CHANNELS 3 Zrotation Yrotation Xrotation
						JOINT relbow
						{
							OFFSET -0.260127 -0.014369 -0.031269
							CHANNELS 3 Zrotation Yrotation Xrotation
							JOINT rwrist
							{
								OFFSET -0.269108 0.006794 -0.006027
								CHANNELS 3 Zrotation Yrotation Xrotation
								End Site
								{
									OFFSET 0.000000 0.000000 0.000000
								}
							}
						}
					}
				}
			}
		}
	}
}
MOTION
Frames: 10
Frame Time: 0.033333
1.772708 0.744718 0.982350 -86.501819 2.524791 82.078397 0.128067 -0.700419 7.887562 -2.167723 -15.931104 7.483101 5.535713 9.419736 -21.037328 0.000000 -0.000000 0.000000 2.675020 -3.760221 5.745653 2.518651 2.245162 10.753642 2.256500 -5.060721 -15.489871 0.000000 -0.000000 0.000000 -2.413624 1.869188 7.247144 0.415696 -2.422227 2.749091 2.043970 -1.337348 3.641730 3.483299 1.875890 -11.948929 2.311201 -2.616600 -4.283037 -26.244267 1.086576 0.385827 -63.189744 -6.467859 7.734117 11.868285 -24.569503 1.257016 -0.056855 -2.367301 -11.074657 24.435143 1.949388 0.127181 61.723735 2.666007 11.468049 -13.832936 24.170440 -3.197621 6.229527 0.672310 -8.680863 
1.772235 0.744397 0.981620 -87.201526 2.539066 82.052499 0.182561 -0.233418 7.995776 -2.204937 -15.753286 7.375900 5.455896 9.412338 -21.011033 0.000000 -0.000000 0.000000 3.032533 -3.335397 4.930861 1.966295 2.500858 12.140903 1.778876 -4.455762 -17.064787 0.000000 -0.000000 0.000000 -2.376458 2.119215 7.386041 0.467174 -2.188020 2.511477 1.971300 -1.286862 3.980616 3.571381 2.508102 -12.382061 1.941870 -2.933211 -4.249296 -25.812664 1.001099 0.323986 -63.234766 -5.359506 8.374103 10.980323 -22.121531 4.367468 0.854071 -2.672757 -8.707982 24.495736 1.727017 -0.095870 61.720092 2.369848 11.477375 -13.597381 23.376545 -2.421350 5.402782 0.641026 -8.670059 
1.773399 0.744535 0.980580 -86.710736 2.318727 82.844021 -0.049404 -1.149092 6.730022 -2.697268 -15.741635 7.908582 6.334523 10.163822 -20.744106 0.000000 -0.000000 0.000000 2.622029 -2.714800 4.634956 2.823645 2.905509 10.918533 1.537950 -5.943525 -16.008940 0.000000 -0.000000 0.000000 -2.569370 2.108811 6.600700 0.520293 -2.544674 2.538345 1.750658 -1.378454 3.776475 3.489788 1.910973 -11.788630 2.280003 -2.632275 -5.019299 -26.354659 0.891526 0.855486 -62.379759 -4.837898 8.290472 10.491379 -19.391155 5.710860 -2.020518 -0.357333 -8.517769 24.091645 1.536371 -0.026612 62.571241 1.259709 11.854288 -15.369214 21.225340 -1.673666 6.787707 -4.148726 -8.011757 
1.772318 0.744251 0.980197 -86.991883 2.366079 82.964766 -0.049170 -0.810547 6.864827 -2.408831 -15.504135 7.735734 5.780257 9.742020 -21.001273 0.000000 -0.000000 0.000000 2.580528 -3.083935 4.459949 2.741151 3.035755 11.137530 1.840282 -5.441520 -15.995047 0.000000 -0.000000 0.000000 -2.651296 2.151691 6.607831 0.535968 -2.482082 2.520493 1.886981 -1.456351 4.034026 3.633687 2.308536 -12.445590 1.891685 -2.975192 -4.619452 -26.012042 1.401173 0.845442 -62.511521 -4.007872 8.050558 10.503904 -18.260655 6.123846 -2.627907 -2.208280 -8.058059 24.732042 1.113082 0.308021 61.399419 2.235476 11.280627 -12.673412 21.938445 -2.407583 6.798362 0.650436 -9.254302 
1.771841 0.744276 0.980186 -86.997036 2.427609 83.026731 0.001789 -0.787260 6.820244 -2.422663 -15.546706 7.809929 5.797699 9.780286 -21.074425 0.000000 -0.000000 0.000000 2.605201 -3.042671 4.427183 2.771506 2.990707 11.108199 1.821556 -5.362984 -16.043044 0.000000 -0.000000 0.000000 -2.616431 2.128709 6.686398 0.582041 -2.529642 2.360875 1.922141 -1.485315 4.050746 3.699687 2.434775 -12.298838 1.843990 -2.781753 -4.649004 -25.980568 1.629638 0.937541 -62.549000 -3.617428 7.885506 10.636692 -16.997940 6.377735 -2.575301 -2.383068 -7.867475 24.375252 0.836085 0.350546 61.843162 1.916678 11.271901 -12.773381 21.818959 -2.132045 6.493841 0.669120 -9.530923 
1.771411 0.744246 0.980173 -87.039530 2.439693 83.128877 -0.004017 -0.813984 6.757177 -2.431673 -15.603769 7.819289 5.857656 9.901051 -21.048665 0.000000 -0.000000 0.000000 2.638175 -2.953454 4.286176 2.789578 3.078993 11.153751 1.723826 -5.477533 -16.020010 0.000000 -0.000000 0.000000 -2.703806 2.194412 6.689216 0.655919 -2.519047 2.283616 2.013037 -1.558954 4.181732 3.592532 2.571033 -12.242194 1.854492 -2.607770 -4.863795 -25.687452 1.854214 1.073587 -62.516293 -3.319922 7.652245 10.236307 -15.759175 6.608478 -2.959624 -2.177542 -7.867845 24.201327 0.550374 0.434494 62.014196 1.704704 11.224291 -12.829577 21.592764 -1.927769 6.526894 0.637137 -9.763445 
1.770574 0.744415 0.980112 -87.106760 2.444076 83.078440 0.047373 -0.695512 6.883890 -2.474268 -15.578438 7.764953 5.988961 9.863179 -21.100351 0.000000 -0.000000 0.000000 2.607259 -2.979323 4.365577 2.871861 3.058569 11.130483 1.632604 -5.349152 -16.048999 0.000000 -0.000000 0.000000 -2.735058 2.245927 6.737588 0.644685 -2.588929 2.384902 2.038535 -1.646556 4.027605 3.451606 2.728184 -11.807343 1.971840 -2.176634 -5.224814 -25.883699 1.402479 1.653019 -62.355305 -2.834479 7.295848 10.758796 -14.487728 6.229501 -3.069034 -2.388906 -8.090071 24.092147 0.563525 0.920901 62.276284 1.562037 10.960799 -12.999465 21.455118 -1.901412 6.489431 0.533858 -10.123150 
1.770536 0.744353 0.980159 -87.175616 2.441580 83.236080 0.013654 -0.798338 6.776233 -2.461032 -15.619249 7.667240 6.003711 10.092312 -21.085402 0.000000 -0.000000 0.000000 2.645790 -2.861779 4.183658 2.876901 3.156942 11.134955 1.633964 -5.547374 -16.059736 0.000000 -0.000000 0.000000 -2.768725 2.235758 6.607715 0.675992 -2.546139 2.483609 2.037562 -1.699154 4.104429 3.613336 2.616194 -12.085921 2.037678 -2.415324 -5.178291 -25.856079 1.456413 1.938142 -62.011117 -2.243697 7.263837 10.520061 -15.023332 5.831751 -3.005549 -1.858980 -8.318631 24.153546 0.525673 0.974444 62.138428 1.433751 10.879883 -12.948329 21.272765 -2.147310 6.611173 0.361277 -10.257409 
1.770034 0.744520 0.980121 -87.327805 2.464984 83.213722 0.061928 -0.662950 6.911397 -2.429732 -15.531096 7.586253 5.872388 10.032398 -21.129337 0.000000 -0.000000 0.000000 2.699245 -2.943132 4.263275 2.800854 3.409094 11.095461 1.722776 -5.525619 -15.949155 0.000000 -0.000000 0.000000 -2.734224 2.277396 6.661788 0.686408 -2.455063 2.567043 1.991621 -1.670372 4.255973 3.670800 2.829909 -12.551150 1.837140 -2.507620 -4.866165 -25.819516 1.564771 1.594926 -61.780261 -2.229220 7.298567 10.308265 -14.382979 5.777776 -2.853371 -2.165429 -8.174251 24.387813 0.439542 0.788149 61.893291 1.520874 10.956412 -12.881012 21.055884 -2.715300 6.106014 0.666623 -10.540511 
1.769878 0.744484 0.979865 -87.312263 2.488667 83.245402 0.126165 -0.590636 6.875194 -2.473093 -15.528627 7.589479 5.873265 9.947256 -21.155370 0.000000 -0.000000 0.000000 2.720588 -3.050279 4.249006 2.725373 3.334945 11.093052 1.716380 -5.345621 -15.971439 0.000000 -0.000000 0.000000 -2.673140 2.295044 6.800819 0.663872 -2.446345 2.577298 1.948285 -1.629820 4.215525 3.760364 2.721456 -12.194327 2.022157 -2.510600 -4.987262 -25.719821 1.650911 1.610863 -61.872808 -2.319996 7.244766 10.481661 -14.509660 5.794208 -2.779115 -2.284332 -8.234441 24.179292 0.404627 0.846425 62.160635 1.553268 10.811834 -12.913333 21.097356 -2.701521 6.110380 0.682611 -10.723259 
